# xmcd CD database file
#
# Track frame offsets:
#	150
#	10890
#	23852
#	35527
#	50947
#	64307
#	77905
#	92177
#	103605
#	112707
#	126017
#	138455
#	145785
#	156130
#	168290
#	178607
#	188642
#	202820
#	213277
#	228490
#
# Disc length: 3176 seconds
#
# Revision: 0
# Processed by: cddbd v1.5.1PL0 Copyright (c) Steve Scherf et al.
# Submitted via: CDex 1.51
#
DISCID=0f0c6614
DTITLE=King Cole Trio - Feat. Pauline and Her Perils - Vol 3 -1939
DYEAR=2005
DGENRE=Jazz
TTITLE0=Georgie Porgie
TTITLE1=The Limp
TTITLE2=Snug As A Bug In A Rug
TTITLE3=Liebestraum
TTITLE4=Fidgety Joe
TTITLE5=Two Against One
TTITLE6=Some Like It Hot
TTITLE7=I Like To Riff
TTITLE8=Crazy Rhythm
TTITLE9=Moonglow
TTITLE10=Don't Let That Moon Get Away
TTITLE11=My Blue Heaven
TTITLE12=I Was Doing All Right
TTITLE13=I Can't Get Started
TTITLE14=Old Man Moon
TTITLE15=Carry Me Back To Old Virginny
TTITLE16=Moon Song (That Wasn't Meant For Me)
TTITLE17=Baby Won't You Please Come Home
TTITLE18=Sweet Lorraine
TTITLE19=Rosetta
EXTD=YEAR: 2005
EXTT0=
EXTT1=
EXTT2=
EXTT3=
EXTT4=
EXTT5=
EXTT6=
EXTT7=
EXTT8=
EXTT9=
EXTT10=
EXTT11=
EXTT12=
EXTT13=
EXTT14=
EXTT15=
EXTT16=
EXTT17=
EXTT18=
EXTT19=
PLAYORDER=
